<svg xmlns="http://www.w3.org/2000/svg" style="display:none">
  <symbol id="icon-add" viewBox="0 0 24 24"><path d="M12 5v14m-7-7h14" stroke="currentColor" stroke-width="2" fill="none" stroke-linecap="round"/></symbol>
  <symbol id="icon-save" viewBox="0 0 24 24"><path d="M17 3H7a2 2 0 0 0-2 2v14a2 2 0 0 0 2 2h10a2 2 0 0 0 2-2V5a2 2 0 0 0-2-2z" fill="none" stroke="currentColor" stroke-width="2"/><path d="M7 3v4h10V3" fill="none" stroke="currentColor" stroke-width="2"/><rect x="9" y="13" width="6" height="4" rx="1" fill="none" stroke="currentColor" stroke-width="2"/></symbol>
  <symbol id="icon-load" viewBox="0 0 24 24"><path d="M12 3v12m0 0l-4-4m4 4l4-4" stroke="currentColor" stroke-width="2" fill="none" stroke-linecap="round"/></symbol>
  <symbol id="icon-reset" viewBox="0 0 24 24"><path d="M4 4v6h6" stroke="currentColor" stroke-width="2" fill="none" stroke-linecap="round"/><path d="M20 20a9 9 0 1 0-16-8.5" stroke="currentColor" stroke-width="2" fill="none"/></symbol>
  <symbol id="icon-export" viewBox="0 0 24 24"><path d="M12 16V4m0 0l-4 4m4-4l4 4" stroke="currentColor" stroke-width="2" fill="none" stroke-linecap="round"/><rect x="4" y="16" width="16" height="4" rx="2" fill="none" stroke="currentColor" stroke-width="2"/></symbol>
  <symbol id="icon-pin" viewBox="0 0 24 24"><circle cx="12" cy="8" r="4" stroke="currentColor" stroke-width="2" fill="none"/><path d="M12 12v8" stroke="currentColor" stroke-width="2" fill="none"/></symbol>
  <symbol id="icon-undo" viewBox="0 0 24 24"><path d="M9 17H5v-4" stroke="currentColor" stroke-width="2" fill="none" stroke-linecap="round"/><path d="M20 20a9 9 0 1 0-16-8.5" stroke="currentColor" stroke-width="2" fill="none"/></symbol>
  <symbol id="icon-redo" viewBox="0 0 24 24"><path d="M15 17h4v-4" stroke="currentColor" stroke-width="2" fill="none" stroke-linecap="round"/><path d="M4 20a9 9 0 1 1 16-8.5" stroke="currentColor" stroke-width="2" fill="none"/></symbol>
</svg>
